<svg width="139" height="37" viewBox="0 0 139 37" fill="none" xmlns="http://www.w3.org/2000/svg">
<circle cx="18.5" cy="18.5" r="17.5" stroke="#F5F5F5" stroke-width="2"/>
<path d="M8.0625 28.9375V9.0625H27.9375V28.9375H8.0625Z" stroke="#F5F5F5" stroke-width="0.125"/>
<path d="M24.7913 17.3793L24.7752 17.3954L24.7732 17.4182C24.3055 22.8453 19.7284 27.0625 14.2501 27.0625C13.1212 27.0625 12.1966 26.8834 11.4986 26.5343C10.9362 26.2532 10.7097 25.9535 10.6571 25.8745L10.6571 25.8745C10.6101 25.804 10.5796 25.7238 10.568 25.6399C10.5563 25.5559 10.5638 25.4705 10.5898 25.3898C10.6158 25.3092 10.6597 25.2354 10.7182 25.1741C10.7767 25.1128 10.8483 25.0655 10.9276 25.0358L10.9277 25.0357C10.9489 25.0277 12.8047 24.3155 14.0068 22.9555L14.0528 22.9035L13.9962 22.8632C13.2607 22.3394 12.6134 21.7018 12.0786 20.9743L12.0785 20.9743C11.0164 19.5329 9.88956 17.026 10.5717 13.2744C10.59 13.1734 10.6357 13.0793 10.7037 13.0024C10.7717 12.9255 10.8594 12.8687 10.9574 12.8381C11.0554 12.8075 11.1599 12.8042 11.2596 12.8288C11.3592 12.8533 11.4503 12.9047 11.5229 12.9772L11.5229 12.9773C11.5512 13.0055 14.1621 15.5805 17.3589 16.4132L17.4371 16.4336L17.4372 16.3528L17.4376 15.8751C17.4376 15.875 17.4376 15.875 17.4376 15.8749C17.4443 14.8909 17.8414 13.9497 18.5416 13.2583C19.2419 12.567 20.188 12.1819 21.172 12.1877C21.8112 12.1966 22.4371 12.3711 22.9887 12.6942C23.5404 13.0173 23.9988 13.478 24.3192 14.0313L24.3373 14.0624L24.3733 14.0624L26.7501 14.0625C26.8614 14.0625 26.9701 14.0955 27.0626 14.1573C27.1551 14.2191 27.2272 14.3069 27.2698 14.4097C27.3124 14.5125 27.3235 14.6256 27.3018 14.7347C27.2801 14.8438 27.2265 14.9441 27.1479 15.0227L24.7913 17.3793Z" fill="#F5F5F5" stroke="#F5F5F5" stroke-width="0.125"/>
<circle cx="69.5" cy="18.5" r="17.5" stroke="#F5F5F5" stroke-width="2"/>
<path d="M59.0625 28.9375V9.0625H78.9375V28.9375H59.0625Z" stroke="#F5F5F5" stroke-width="0.125"/>
<path d="M68 25.8749V22.75V22.6875H68.0625H69.9375H70V22.75V25.8749C70.0007 26.5212 70.2578 27.1408 70.7148 27.5977C71.1717 28.0547 71.7913 28.3118 72.4375 28.3125L68 25.8749ZM68 25.8749C67.9993 26.5212 67.7422 27.1408 67.2852 27.5977C66.8283 28.0547 66.2087 28.3118 65.5624 28.3125C65.4133 28.3125 65.2702 28.2532 65.1648 28.1478C65.0593 28.0423 65 27.8992 65 27.75C65 27.6008 65.0593 27.4578 65.1648 27.3523C65.2702 27.2468 65.4133 27.1875 65.5625 27.1875H65.5626C65.9105 27.1871 66.2441 27.0487 66.4902 26.8027C66.7362 26.5566 66.8746 26.223 66.875 25.8751V25.875V22.75V22.6875H66.8125H65.875H65.8749C65.527 22.6879 65.1934 22.8263 64.9473 23.0724C64.7013 23.3184 64.5629 23.652 64.5625 23.9999V24V24.6249C64.5618 25.2712 64.3047 25.8908 63.8477 26.3477C63.3908 26.8047 62.7712 27.0618 62.1249 27.0625C61.9758 27.0625 61.8327 27.0032 61.7273 26.8978C61.6218 26.7923 61.5625 26.6492 61.5625 26.5C61.5625 26.3508 61.6218 26.2078 61.7273 26.1023C61.8327 25.9968 61.9758 25.9375 62.125 25.9375H62.1251C62.473 25.9371 62.8066 25.7987 63.0527 25.5527C63.2987 25.3066 63.4371 24.973 63.4375 24.6251V24.625V24C63.4377 23.5909 63.541 23.1883 63.7378 22.8296C63.9345 22.4708 64.2185 22.1673 64.5634 21.9472L64.6402 21.8982L64.5668 21.8442C64.023 21.4438 63.5809 20.9213 63.2762 20.3187C62.9714 19.7161 62.8126 19.0503 62.8125 18.375C62.8125 18.375 62.8125 18.375 62.8125 18.375V17.7503C62.82 16.9843 63.0241 16.2331 63.4054 15.5686L63.4189 15.545L63.4108 15.519C63.2221 14.911 63.1615 14.2705 63.2329 13.638C63.3042 13.0054 63.5059 12.3945 63.8253 11.8439L63.8254 11.8438C63.8747 11.7582 63.9457 11.6872 64.0312 11.6379C64.1168 11.5885 64.2138 11.5625 64.3125 11.5625L64.3126 11.5625C65.031 11.5609 65.7397 11.7274 66.3822 12.0485C67.0247 12.3697 67.5832 12.8368 68.013 13.4123L68.0317 13.4374L68.0631 13.4374L69.9369 13.4375L69.9682 13.4375L69.987 13.4124C70.4168 12.8368 70.9752 12.3698 71.6178 12.0486C72.2603 11.7274 72.969 11.5609 73.6874 11.5625L73.6875 11.5625C73.7862 11.5625 73.8832 11.5885 73.9688 11.6379C74.0543 11.6872 74.1253 11.7582 74.1746 11.8438L74.1747 11.8439C74.4941 12.3945 74.6958 13.0054 74.7671 13.638C74.8385 14.2705 74.7778 14.911 74.5891 15.519L74.581 15.545L74.5946 15.5686C74.9758 16.233 75.18 16.9843 75.1875 17.7503V18.375C75.1874 19.0503 75.0286 19.7161 74.7238 20.3187C74.4191 20.9213 73.977 21.4438 73.4332 21.8442L73.3598 21.8982L73.4366 21.9472C73.7815 22.1673 74.0655 22.4708 74.2622 22.8296C74.459 23.1883 74.5623 23.5909 74.5625 24V24.625V24.6251C74.5629 24.973 74.7013 25.3066 74.9473 25.5527C75.1934 25.7987 75.527 25.9371 75.8749 25.9375H75.875C76.0242 25.9375 76.1673 25.9968 76.2727 26.1023C76.3782 26.2078 76.4375 26.3508 76.4375 26.5C76.4375 26.6492 76.3782 26.7923 76.2727 26.8977C76.1673 27.0032 76.0242 27.0625 75.8751 27.0625C75.2288 27.0618 74.6092 26.8047 74.1523 26.3477C73.6953 25.8908 73.4382 25.2712 73.4375 24.6249V24V23.9999M68 25.8749L73.4375 23.9999M73.4375 23.9999C73.4371 23.652 73.2987 23.3184 73.0527 23.0724C72.8066 22.8263 72.473 22.6879 72.1251 22.6875H72.125M73.4375 23.9999L72.125 22.6875M72.125 22.6875H71.1875H71.125M72.125 22.6875H71.125M71.125 22.6875V22.75M71.125 22.6875V22.75M71.125 22.75V25.875V25.8751M71.125 22.75V25.8751M71.125 25.8751C71.1254 26.223 71.2638 26.5566 71.5098 26.8027C71.7559 27.0487 72.0895 27.1871 72.4374 27.1875H72.4375M71.125 25.8751L72.4375 27.1875M72.4375 27.1875C72.5867 27.1875 72.7298 27.2468 72.8352 27.3523M72.4375 27.1875L72.8352 27.3523M72.8352 27.3523C72.9407 27.4578 73 27.6008 73 27.75M72.8352 27.3523L73 27.75M73 27.75C73 27.8992 72.9407 28.0423 72.8352 28.1478M73 27.75L72.8352 28.1478M72.8352 28.1478C72.7298 28.2532 72.5867 28.3125 72.4376 28.3125L72.8352 28.1478Z" fill="#F5F5F5" stroke="#F5F5F5" stroke-width="0.125"/>
<circle cx="120.5" cy="18.5" r="17.5" stroke="#F5F5F5" stroke-width="2"/>
<path d="M110.062 28.9375V9.0625H129.938V28.9375H110.062Z" stroke="#F5F5F5" stroke-width="0.125"/>
<path d="M124.543 16.2932L124.473 16.3439L124.543 16.3945C124.89 16.6454 125.183 16.9631 125.406 17.3288C125.629 17.6946 125.776 18.1012 125.839 18.5247C125.903 18.9482 125.881 19.3801 125.776 19.7951C125.67 20.2101 125.482 20.5998 125.224 20.9414C124.966 21.283 124.642 21.5696 124.272 21.7844C123.901 21.9991 123.491 22.1378 123.067 22.1921C122.642 22.2465 122.211 22.2155 121.798 22.101C121.385 21.9864 121 21.7907 120.664 21.5251L120.562 21.4451V21.5742V24.3126V24.3126C120.563 24.8634 120.421 25.4051 120.152 25.8857C119.883 26.3663 119.495 26.7698 119.025 27.0575C118.556 27.3452 118.02 27.5075 117.469 27.5289C116.919 27.5502 116.372 27.43 115.882 27.1795C115.391 26.9291 114.973 26.557 114.667 26.0987C114.362 25.6404 114.179 25.1113 114.136 24.5621C114.094 24.013 114.193 23.462 114.424 22.9621C114.655 22.4622 115.011 22.03 115.457 21.707L115.527 21.6563L115.457 21.6057C115.045 21.3078 114.709 20.9163 114.477 20.4633C114.246 20.0104 114.125 19.5089 114.125 19.0001C114.125 18.4914 114.246 17.9899 114.477 17.5369C114.709 17.0839 115.045 16.6924 115.457 16.3946L115.527 16.3439L115.457 16.2932C114.906 15.8947 114.495 15.3318 114.284 14.6853C114.073 14.0387 114.072 13.3419 114.282 12.6948C114.491 12.0477 114.9 11.4837 115.451 11.0838C116.001 10.6839 116.664 10.4686 117.344 10.4689H117.344L122.656 10.4689L122.656 10.4689C123.336 10.4686 123.999 10.6839 124.549 11.0838C125.1 11.4837 125.509 12.0477 125.718 12.6948C125.928 13.3419 125.927 14.0387 125.716 14.6853C125.505 15.3318 125.094 15.8947 124.543 16.2932ZM124.75 13.6878V13.6876C124.749 13.1325 124.529 12.6004 124.136 12.2079C123.744 11.8153 123.211 11.5946 122.656 11.5939H122.656H120.625H120.562V11.6564V15.7189V15.7814L120.625 15.7814L122.653 15.7814V15.7815L122.655 15.7814L122.656 15.7814L122.656 15.7814L122.658 15.7814C123.213 15.7804 123.744 15.5594 124.137 15.1669C124.529 14.7745 124.749 14.2426 124.75 13.6878ZM122.653 16.9064H122.653C122.098 16.9074 121.566 17.1286 121.174 17.5215C120.783 17.9144 120.563 18.4468 120.563 19.0017C120.563 19.5566 120.784 20.0887 121.177 20.481C121.569 20.8733 122.101 21.0937 122.656 21.0939H122.656C123.211 21.0935 123.743 20.8729 124.136 20.4804C124.528 20.088 124.748 19.5558 124.749 19.0009C124.749 18.446 124.529 17.9137 124.137 17.5209C123.745 17.1282 123.213 16.9072 122.658 16.9064L122.656 16.9064L122.655 16.9064H122.653Z" fill="#F5F5F5" stroke="#F5F5F5" stroke-width="0.125"/>
</svg>
